<svg xmlns="http://www.w3.org/2000/svg" xmlns:xlink="http://www.w3.org/1999/xlink" xml:space="preserve" version="1.1" style="shape-rendering:geometricPrecision;text-rendering:geometricPrecision;image-rendering:optimizeQuality;" viewBox="0 0 846.66 846.66" x="0px" y="0px" fill-rule="evenodd" clip-rule="evenodd"><defs><style type="text/css">
   
    .fil0 {fill:black;fill-rule:nonzero}
   
  </style></defs><g><path class="fil0" d="M293.73 102.46c-12.72,-47.59 59.64,-66.93 72.36,-19.34 9.75,36.07 45.11,144.22 85.72,156.57 51.53,10.86 71.53,23.67 112.79,42.72 60.38,35.86 77.39,101.85 110.69,159.52 24.63,42.52 -40.11,80.02 -64.74,37.5 -20.05,-34.72 -45.35,-100.33 -72.7,-123.94 -17.44,42.14 -41.03,98.65 -52.71,124.52 27.41,23.76 67.3,62.82 67.96,89.55 0.66,26.74 -38.9,192.63 -39.01,193.09 -11.36,47.78 -84.02,30.51 -72.66,-17.28 0.1,-0.43 37.4,-156.69 36.97,-174.05 -0.05,-2.17 -26.55,-23.35 -45.52,-38.24 -60.94,82.18 -113.04,167.43 -232.16,160.71 -49.12,-2.69 -45.03,-77.39 4.1,-74.7 74.76,4.22 124.25,-67.54 154.23,-111.01 20.98,-30.45 2.81,-13.64 2.81,-41.88 0,-18.96 16.92,-70 56.23,-159.53 -68.16,-31.99 -106.12,-136.72 -124.36,-204.21zm260.99 -22.77c43.55,0 78.98,35.43 78.98,78.98 0,43.55 -35.43,78.98 -78.98,78.98 -43.55,0 -78.98,-35.43 -78.98,-78.98 0,-43.55 35.43,-78.98 78.98,-78.98z"/></g></svg>