<svg xmlns="http://www.w3.org/2000/svg" xmlns:xlink="http://www.w3.org/1999/xlink" version="1.1" x="0px" y="0px" viewBox="0 0 100 100" enable-background="new 0 0 100 100" xml:space="preserve"><path d="M74.107,21.192c-8.185-4.664-20.395,1.287-27.219,13.265c-0.952,1.67-1.741,3.37-2.385,5.073  c-6.992-4.739-14.796-5.775-20.094-1.918c-7.616,5.543-7.212,19.121,0.9,30.266S46.219,83.58,53.835,78.036  c3.638-2.647,5.424-7.137,5.437-12.311C65.6,64.227,72.194,59.06,76.575,51.37C83.399,39.393,82.292,25.855,74.107,21.192z   M49.495,35.943c5.607-9.842,15.024-15.242,21.741-12.784c-0.039,0.296-0.043,0.606,0.039,0.948  c1.059,4.399-7.266,10.059-9.855,12.55c-3.521,3.385-6.065,7.678-7.723,12.244c-0.254-0.377-0.493-0.758-0.764-1.13  c-1.783-2.449-3.792-4.579-5.922-6.354C47.652,39.587,48.466,37.749,49.495,35.943z M52.069,75.611  c-6.279,4.569-17.195,0.309-24.334-9.499c-6.666-9.158-7.716-19.962-2.714-25.074c0.254,0.157,0.536,0.288,0.881,0.354  c4.445,0.844,6.182,10.759,7.387,14.145c1.651,4.64,4.551,8.756,8.071,12.16c3.735,3.611,8.821,4.589,13.832,3.989  C54.481,73.272,53.441,74.611,52.069,75.611z M47.091,65.66c-4.415-1.976-7.446-7.681-9.121-11.887  c-1.815-4.556-3.209-11.921-7.423-15.456c6.223-0.866,14.285,3.419,19.961,11.218c4.075,5.599,6.048,11.81,5.827,16.962  C53.208,67.1,49.953,66.941,47.091,65.66z M73.969,49.885c-3.428,6.018-8.278,10.37-13.066,12.287  c-1.834-2.604-3.028-5.637-3.036-8.771c-0.015-4.837,3.939-9.946,7.085-13.202c3.406-3.528,9.547-7.827,11.036-13.122  C79.336,32.393,78.744,41.504,73.969,49.885z"/></svg>