<svg xmlns="http://www.w3.org/2000/svg" xmlns:xlink="http://www.w3.org/1999/xlink" version="1.1" x="0px" y="0px" viewBox="0 0 100 100" enable-background="new 0 0 100 100" xml:space="preserve"><path fill="#000000" d="M50,17.9c-17.7,0-32.1,14.4-32.1,32.1S32.3,82.1,50,82.1c17.7,0,32.1-14.4,32.1-32.1S67.7,17.9,50,17.9z   M50,79.1c-16.1,0-29.1-13.1-29.1-29.1S33.9,20.9,50,20.9c16.1,0,29.1,13.1,29.1,29.1S66.1,79.1,50,79.1z"/><path fill="#000000" d="M33,35.8c-4,0-6.4,2.2-6.4,6.2h2c0-2,1.4-4.2,4.4-4.2c2,0,3.5,2.2,3.5,4.2h2C38.5,38,36,35.8,33,35.8z"/><path fill="#000000" d="M61.2,42h2c0-2,1.8-4.2,3.8-4.2s4,2.2,4,4.2h2c0-4-3-6.2-6-6.2S61.2,38,61.2,42z"/><path fill="#000000" d="M40.8,55c0.1,7.8,4.3,14.2,9.3,14.2c5,0,9.1-6.4,9.3-14.2l0-1H40.7L40.8,55z M57.2,56  c-0.4,6.1-3.6,11.2-7.2,11.2c-3.6,0-6.8-5.1-7.2-11.2H57.2z"/><rect x="65.7" y="51.3" transform="matrix(0.3988 -0.9171 0.9171 0.3988 -6.7308 94.2338)" fill="#000000" width="5.6" height="2"/><rect x="71.5" y="49.4" transform="matrix(-0.9172 -0.3985 0.3985 -0.9172 118.1721 129.0639)" fill="#000000" width="2" height="5.6"/><rect x="24.7" y="51.3" transform="matrix(0.3986 -0.9171 0.9171 0.3986 -31.3813 56.6438)" fill="#000000" width="5.6" height="2"/><rect x="30.5" y="49.4" transform="matrix(-0.9172 -0.3985 0.3985 -0.9172 39.5684 112.7249)" fill="#000000" width="2" height="5.6"/></svg>