<svg xmlns="http://www.w3.org/2000/svg" xmlns:xlink="http://www.w3.org/1999/xlink" version="1.1" x="0px" y="0px" viewBox="0 0 100 100" style="enable-background:new 0 0 100 100;" xml:space="preserve"><g><path d="M80.688,50.598c-1.467-0.77-3.28-0.205-4.051,1.262c-3.864,7.36-6.419,10.486-12.241,10.785   c-2.026,0.1-5.157-0.834-7.604-3.158c-1.541-1.464-3.377-4.062-3.377-8.127c0-0.134-0.022-0.262-0.039-0.392   c3.837-1.806,9.633-5.932,9.633-10.737c0-6.468-5.638-7.381-12.593-7.381c-6.955,0-12.593,0.913-12.593,7.381   c0,4.804,5.795,8.931,9.632,10.737c-0.017,0.13-0.039,0.258-0.039,0.392c0,4.065-1.836,6.663-3.377,8.127   c-2.448,2.326-5.569,3.257-7.604,3.158c-5.822-0.299-8.376-3.425-12.241-10.785c-0.771-1.469-2.584-2.031-4.051-1.262   c-1.467,0.771-2.032,2.584-1.262,4.051c3.474,6.616,7.041,12.225,14.545,13.654c-0.101,3.8-0.116,9.487-0.116,9.567   C33.309,87.766,45.314,95,50.417,95s17.107-7.234,17.107-17.131c0-0.08-0.015-5.767-0.116-9.567   c7.502-1.43,11.069-7.039,14.542-13.654C82.719,53.182,82.154,51.368,80.688,50.598z M50.417,89   c-2.563,0-11.107-5.262-11.107-11.131c0-1.253,0.043-6.397,0.113-9.491c2.823-0.543,5.655-1.91,7.992-3.889v9.387   c0,1.657,1.343,3,3,3s3-1.343,3-3V64.49c2.338,1.98,5.172,3.347,7.996,3.889c0.07,3.094,0.113,8.238,0.113,9.49   C61.523,83.738,52.979,89,50.417,89z"/><path d="M79.293,5C73.43,5,68.676,9.753,68.676,15.617s4.753,7.91,10.617,7.91s10.617-2.046,10.617-7.91S85.156,5,79.293,5z"/><path d="M31.324,15.617C31.324,9.753,26.57,5,20.707,5S10.09,9.753,10.09,15.617s4.753,7.91,10.617,7.91   S31.324,21.48,31.324,15.617z"/></g></svg>