<svg width="64" height="64" viewBox="0 0 64 64" fill="none" xmlns="http://www.w3.org/2000/svg">
<line y1="-2.5" x2="25.4596" y2="-2.5" transform="matrix(0.900888 0.434051 -0.713253 0.700906 9 45.0094)" stroke="#16161D" stroke-width="5"/>
<line y1="-2.5" x2="25.4596" y2="-2.5" transform="matrix(0.900888 0.434051 -0.713253 0.700906 9 34)" stroke="#16161D" stroke-width="5"/>
<line y1="-2.5" x2="25.4596" y2="-2.5" transform="matrix(0.900888 -0.434051 0.713253 0.700906 32 56.0601)" stroke="#16161D" stroke-width="5"/>
<line y1="-2.5" x2="25.0581" y2="-2.5" transform="matrix(-0.916593 0.399821 -0.747114 -0.664695 31.9681 13.9813)" stroke="#16161D" stroke-width="5"/>
<line y1="-2.5" x2="25.0581" y2="-2.5" transform="matrix(-0.916593 0.399821 -0.747114 -0.664695 31.9681 4)" stroke="#16161D" stroke-width="5"/>
<line y1="-2.5" x2="25.0581" y2="-2.5" transform="matrix(-0.916593 -0.399821 0.747114 -0.664695 55 24)" stroke="#16161D" stroke-width="5"/>
<line y1="-2.5" x2="25.0581" y2="-2.5" transform="matrix(-0.916593 -0.399821 0.747114 -0.664695 55 14.0187)" stroke="#16161D" stroke-width="5"/>
<line y1="-2.5" x2="25.4596" y2="-2.5" transform="matrix(0.900888 -0.434051 0.713253 0.700906 32 45.0507)" stroke="#16161D" stroke-width="5"/>
</svg>
